<svg width="220" height="193" viewBox="0 0 220 193" fill="none" xmlns="http://www.w3.org/2000/svg">
<path fill-rule="evenodd" clip-rule="evenodd" d="M33.9823 75.4572C30.3215 75.9612 27.5 79.1457 27.5 82.999C27.5 87.2026 30.8579 90.6102 35 90.6102L166.833 90.6102L119.21 138.746L118.482 139.598C116.297 142.573 116.531 146.802 119.188 149.51C122.111 152.488 126.859 152.498 129.794 149.532L190.187 88.4961C190.549 88.1444 190.876 87.7564 191.163 87.3377C193.202 84.3659 192.912 80.2472 190.294 77.6014L129.794 16.4677L128.951 15.7326C126.01 13.5282 121.844 13.7829 119.187 16.4909C116.265 19.4697 116.275 24.2888 119.21 27.2548L166.845 75.3877L35 75.3877L33.9823 75.4572Z" fill="white"/>
</svg>
